<svg xmlns="http://www.w3.org/2000/svg" xmlns:xlink="http://www.w3.org/1999/xlink" viewBox="0 0 504 252"><defs><clipPath id="clip-path"><rect x="5.5" y="23.5" width="205" height="205" style="fill:none"/></clipPath><clipPath id="clip-path-2"><path d="M103.49,146.5h9c2.52,12.42,5.74,24.6,5.74,24.6H97.75s3.22-12.18,5.74-24.6M106,46.05V64.5H99.8V76.8h2c-.59,21.67-4.1,46.08-8.79,63.55H91.6v5.27a239.91,239.91,0,0,1-8.94,25.48H79.3v7.67C70.69,197.44,62.9,208,62.9,208H87.5s-1.37-22.55,20.5-22.55S128.5,208,128.5,208h24.6s-7.79-10.56-16.4-29.23V171.1h-3.36a242.16,242.16,0,0,1-8.94-25.48v-5.27h-1.46c-4.69-17.47-8.2-41.88-8.79-63.55h2V64.5h-6.15V46.05a2,2,0,0,0-4.1,0" style="fill:none"/></clipPath><linearGradient id="Unbenannter_Verlauf_2" x1="1.87" y1="-1.05" x2="3.92" y2="-1.05" gradientTransform="matrix(0, 72.42, 72.42, 0, 183.81, -68.04)" gradientUnits="userSpaceOnUse"><stop offset="0" stop-color="#81d4fa"/><stop offset="1" stop-color="#f48fb1"/></linearGradient></defs><title>logo-full</title><g id="headline"><path d="M214,162.52c0-3.94,3.58-5.88,12.46-6.55-.13-2.18-1.29-3.92-4.42-3.92a12.25,12.25,0,0,0-6,2l-1.37-2.39a15.82,15.82,0,0,1,8-2.5c4.84,0,7.37,2.79,7.37,7.43v10.59h-3l-.28-2.28h-.12a11.53,11.53,0,0,1-6.73,2.71C216.63,167.59,214,165.62,214,162.52Zm12.46-.14v-4.12c-6.91.5-9,1.89-9,4,0,1.76,1.59,2.5,3.47,2.5A8.84,8.84,0,0,0,226.5,162.38Z" style="fill:#bdbdbd"/><path d="M237.88,149.57h3l.32,4.08h.08a9,9,0,0,1,7.67-4.51,7.38,7.38,0,0,1,3.45.72l-.79,3a8.9,8.9,0,0,0-3.22-.56c-2.52,0-5,1.28-6.89,4.83v10h-3.59Z" style="fill:#bdbdbd"/><path d="M257.29,158.4c0-5.89,4.56-9.26,9.91-9.26a9.05,9.05,0,0,1,6.45,2.53l-1.73,2.26a7,7,0,0,0-4.57-1.84A6,6,0,0,0,261,158.4a5.94,5.94,0,0,0,6.28,6.25,8.24,8.24,0,0,0,5.22-2.07l1.54,2.31a10.75,10.75,0,0,1-7.05,2.7C261.45,167.59,257.29,164.23,257.29,158.4Z" style="fill:#bdbdbd"/><path d="M279.29,141.64h3.58v6.77l-.21,4h.12a8.52,8.52,0,0,1,6.36-3.23c4.1,0,6,2.53,6,7.11v10.91h-3.59V156.72c0-3.07-1-4.49-3.64-4.49-1.91,0-3.2,1-5,2.8v12.13h-3.58Z" style="fill:#bdbdbd"/><path d="M308.73,152.44h-7.86v-2.87h11.45v17.59h-3.59Zm-1.17-8.85a2.68,2.68,0,0,1,5.35,0,2.68,2.68,0,0,1-5.35,0Z" style="fill:#bdbdbd"/><path d="M326.45,160.21v-7.77h-4.84v-2.68l5-.19.47-5.57h3v5.57h8.3v2.87H330v7.77c0,3,1.07,4.49,4.25,4.49a11.28,11.28,0,0,0,4-.75l.73,2.62a16.19,16.19,0,0,1-5.57,1C328.2,167.59,326.45,164.62,326.45,160.21Z" style="fill:#bdbdbd"/><path d="M343.26,158.34a8.88,8.88,0,0,1,9-9.2c5.16,0,8.1,3.39,8.1,8.3a13.38,13.38,0,0,1-.16,1.95H345.75v-2.62H358l-.77.87c0-3.81-1.85-5.72-4.83-5.72s-5.6,2.27-5.6,6.42c0,4.32,2.71,6.45,6.49,6.45a9.56,9.56,0,0,0,5.14-1.55l1.25,2.27a12.46,12.46,0,0,1-6.85,2.08C347.48,167.59,343.26,164.2,343.26,158.34Z" style="fill:#bdbdbd"/><path d="M365.29,158.4c0-5.89,4.56-9.26,9.91-9.26a9.07,9.07,0,0,1,6.45,2.53l-1.73,2.26a7,7,0,0,0-4.57-1.84A6,6,0,0,0,369,158.4a6,6,0,0,0,6.29,6.25,8.24,8.24,0,0,0,5.22-2.07l1.54,2.31a10.77,10.77,0,0,1-7.05,2.7C369.45,167.59,365.29,164.23,365.29,158.4Z" style="fill:#bdbdbd"/><path d="M391.25,160.21v-7.77h-4.84v-2.68l5-.19.47-5.57h3v5.57h8.3v2.87h-8.3v7.77c0,3,1.07,4.49,4.25,4.49a11.28,11.28,0,0,0,4-.75l.73,2.62a16.28,16.28,0,0,1-5.57,1C393,167.59,391.25,164.62,391.25,160.21Z" style="fill:#bdbdbd"/><path d="M408.37,160.49V149.57H412V160c0,3,1,4.49,3.66,4.49,1.84,0,3.17-.82,4.93-2.91v-12h3.58v17.59h-3l-.28-2.93h-.15c-1.71,2-3.72,3.36-6.39,3.36C410.23,167.59,408.37,165.07,408.37,160.49Z" style="fill:#bdbdbd"/><path d="M432.28,149.57h3l.32,4.08h.08a9,9,0,0,1,7.67-4.51,7.31,7.31,0,0,1,3.44.72l-.78,3a9,9,0,0,0-3.22-.56c-2.52,0-4.95,1.28-6.9,4.83v10h-3.58Z" style="fill:#bdbdbd"/><path d="M451.26,158.34a8.88,8.88,0,0,1,9-9.2c5.16,0,8.1,3.39,8.1,8.3a13.38,13.38,0,0,1-.16,1.95H453.74v-2.62H466l-.77.87c0-3.81-1.85-5.72-4.83-5.72s-5.6,2.27-5.6,6.42c0,4.32,2.71,6.45,6.49,6.45a9.56,9.56,0,0,0,5.14-1.55l1.25,2.27a12.46,12.46,0,0,1-6.85,2.08C455.48,167.59,451.26,164.2,451.26,158.34Z" style="fill:#bdbdbd"/><path d="M214.7,109.42a12.82,12.82,0,0,1,13-13.29c7.46,0,11.7,4.9,11.7,12a18.08,18.08,0,0,1-.24,2.82h-20.9v-3.8H236l-1.13,1.27c0-5.51-2.66-8.27-7-8.27s-8.09,3.29-8.09,9.28c0,6.24,3.91,9.31,9.37,9.31a13.83,13.83,0,0,0,7.43-2.23l1.81,3.27a18,18,0,0,1-9.89,3C220.79,122.79,214.7,117.88,214.7,109.42Z" style="fill:#757575"/><path d="M258.42,100.89H247.06V96.75H263.6v25.41h-5.18ZM256.74,88.1a3.86,3.86,0,1,1,3.85,3.68A3.63,3.63,0,0,1,256.74,88.1Z" style="fill:#757575"/><path d="M278.81,97l7.26-.27h15.12v4.14H278.81Zm7.12-2c0-6.08,3.28-10.33,10.54-10.33a20,20,0,0,1,7.42,1.44L302.78,90A14.07,14.07,0,0,0,297,88.8c-4.21,0-6,2.26-6,6.07v27.29h-5.14Z" style="fill:#757575"/><path d="M310,97l7.26-.27h15.12v4.14H310Zm7.12-2c0-6.08,3.28-10.33,10.54-10.33a20,20,0,0,1,7.42,1.44L334,90a14.07,14.07,0,0,0-5.75-1.15c-4.21,0-6,2.26-6,6.07v27.29h-5.14Z" style="fill:#757575"/><path d="M339.5,109.42a12.82,12.82,0,0,1,13-13.29c7.45,0,11.7,4.9,11.7,12a19.4,19.4,0,0,1-.24,2.82H343.08v-3.8h17.68l-1.12,1.27c0-5.51-2.66-8.27-7-8.27s-8.09,3.29-8.09,9.28c0,6.24,3.91,9.31,9.37,9.31a13.83,13.83,0,0,0,7.43-2.23l1.81,3.27a18,18,0,0,1-9.89,3C345.59,122.79,339.5,117.88,339.5,109.42Z" style="fill:#757575"/><path d="M379.58,113.27V89.43h-8.73V85.29h13.91v28.29c0,3.52,2,5,4.79,5a11.37,11.37,0,0,0,4.55-1.07l1.25,3.85a16.76,16.76,0,0,1-7,1.48C382.65,122.79,379.58,119.39,379.58,113.27Z" style="fill:#757575"/><path d="M421.48,106.9H402.75v-3.79h22.77v13.78h-4Z" style="fill:#757575"/></g><g id="logo"><g style="clip-path:url(#clip-path)"><g style="clip-path:url(#clip-path-2)"><rect x="18.13" y="36.13" width="179.75" height="179.75" transform="translate(-57.46 113.27) rotate(-45)" style="fill:url(#Unbenannter_Verlauf_2)"/></g></g></g></svg>