<svg xmlns="http://www.w3.org/2000/svg" xmlns:xlink="http://www.w3.org/1999/xlink" viewBox="0 0 120 60"><defs><clipPath id="clip-path"><rect y="5" width="50" height="50" style="fill:none"/></clipPath><clipPath id="clip-path-2"><path d="M23.9,35h2.2c.61,3,1.4,6,1.4,6h-5s.78-3,1.4-6m.6-24.5V15H23v3h.5a72.28,72.28,0,0,1-2.15,15.5H21v1.28A57.62,57.62,0,0,1,18.82,41H18v1.87A44.7,44.7,0,0,1,14,50h6s-.33-5.5,5-5.5S30,50,30,50h6a44.7,44.7,0,0,1-4-7.13V41h-.82A57.62,57.62,0,0,1,29,34.78V33.5h-.35A72.28,72.28,0,0,1,26.5,18H27V15H25.5V10.5a.5.5,0,0,0-1,0" style="fill:none"/></clipPath><linearGradient id="Unbenannter_Verlauf_2" x1="0.93" y1="-21.12" x2="1.43" y2="-21.12" gradientTransform="matrix(0, 72.42, 72.42, 0, 1554.11, -51.61)" gradientUnits="userSpaceOnUse"><stop offset="0" stop-color="#81d4fa"/><stop offset="1" stop-color="#f48fb1"/></linearGradient></defs><title>logo_full</title><g id="text"><path d="M57.49,42.92a.42.42,0,0,1-.14.33.4.4,0,0,1-.31.13.44.44,0,0,1-.25-.08.65.65,0,0,1-.19-.24L56,41.59H52.89l-.61,1.48a.44.44,0,0,1-.16.23.5.5,0,0,1-.26.08.4.4,0,0,1-.32-.11.41.41,0,0,1-.11-.3s0-.08,0-.16L54,36.63a.58.58,0,0,1,.19-.24.42.42,0,0,1,.29-.07.5.5,0,0,1,.27.08.44.44,0,0,1,.17.23l2.54,6.1A.63.63,0,0,1,57.49,42.92Zm-4.22-2.24H55.6l-1.17-2.8Z" style="fill:#bdbdbd"/><path d="M61.44,38.13a.39.39,0,0,1,.19.33.49.49,0,0,1-.13.37.41.41,0,0,1-.3.12,1,1,0,0,1-.27-.06,1.4,1.4,0,0,0-.33-.07A1,1,0,0,0,60,39a1.49,1.49,0,0,0-.48.59,1.78,1.78,0,0,0-.19.83v2.41a.48.48,0,0,1-.48.48.45.45,0,0,1-.34-.13.48.48,0,0,1-.13-.35V38.59a.45.45,0,0,1,.14-.34.44.44,0,0,1,.33-.14.46.46,0,0,1,.34.14.45.45,0,0,1,.14.34v.51a2,2,0,0,1,.66-.79A1.75,1.75,0,0,1,61,38,.77.77,0,0,1,61.44,38.13Z" style="fill:#bdbdbd"/><path d="M65.89,38.24c.34.17.52.38.52.64a.49.49,0,0,1-.11.31.34.34,0,0,1-.28.13.44.44,0,0,1-.21,0l-.2-.13a1.33,1.33,0,0,0-.19-.14,1.41,1.41,0,0,0-.34-.1,3.18,3.18,0,0,0-.4,0,1.75,1.75,0,0,0-.92.24,1.61,1.61,0,0,0-.62.67,2.14,2.14,0,0,0,0,1.89,1.6,1.6,0,0,0,.6.66,1.67,1.67,0,0,0,.89.24,1.82,1.82,0,0,0,.84-.16,1.08,1.08,0,0,0,.19-.13l.17-.12a.58.58,0,0,1,.19,0,.37.37,0,0,1,.31.13.44.44,0,0,1,.12.32.58.58,0,0,1-.26.42,2.23,2.23,0,0,1-.71.33,3.32,3.32,0,0,1-1,.13,2.57,2.57,0,0,1-1.34-.35,2.41,2.41,0,0,1-.89-1,3.07,3.07,0,0,1-.32-1.4,2.91,2.91,0,0,1,.33-1.39,2.42,2.42,0,0,1,.92-1A2.52,2.52,0,0,1,64.57,38,3.17,3.17,0,0,1,65.89,38.24Z" style="fill:#bdbdbd"/><path d="M71.8,40.2v2.67a.46.46,0,0,1-.14.34.42.42,0,0,1-.34.14.44.44,0,0,1-.34-.14.45.45,0,0,1-.13-.34V40.2c0-.86-.37-1.3-1.1-1.3a1.37,1.37,0,0,0-1,.38,1.23,1.23,0,0,0-.39.92v2.67a.46.46,0,0,1-.14.34.42.42,0,0,1-.34.14.45.45,0,0,1-.34-.13.48.48,0,0,1-.13-.35V36.43a.48.48,0,0,1,.13-.34A.48.48,0,0,1,67.9,36a.46.46,0,0,1,.34.14.49.49,0,0,1,.14.34V39a2.12,2.12,0,0,1,.7-.66A1.76,1.76,0,0,1,70,38C71.21,38,71.8,38.75,71.8,40.2Z" style="fill:#bdbdbd"/><path d="M73.22,37.3A.43.43,0,0,1,73.1,37V36.8a.4.4,0,0,1,.13-.34.76.76,0,0,1,.42-.1.6.6,0,0,1,.4.11.39.39,0,0,1,.13.33V37a.39.39,0,0,1-.13.34.65.65,0,0,1-.41.1A.69.69,0,0,1,73.22,37.3ZM74,43.21a.42.42,0,0,1-.34.14.44.44,0,0,1-.34-.14.45.45,0,0,1-.13-.34V38.54a.48.48,0,0,1,.13-.34.48.48,0,0,1,.34-.14.46.46,0,0,1,.34.14.49.49,0,0,1,.14.34v4.33A.46.46,0,0,1,74,43.21Z" style="fill:#bdbdbd"/><path d="M76.91,39v3c0,.34.15.5.45.5l.19,0a.54.54,0,0,1,.19,0,.28.28,0,0,1,.22.11.45.45,0,0,1,.09.28.43.43,0,0,1-.24.36,1,1,0,0,1-.54.15,2.37,2.37,0,0,1-.61-.07.89.89,0,0,1-.49-.35,1.47,1.47,0,0,1-.21-.87V39h-.58a.41.41,0,0,1-.44-.44.43.43,0,0,1,.12-.31.45.45,0,0,1,.32-.12H76v-.84a.46.46,0,0,1,.48-.48.45.45,0,0,1,.33.14.49.49,0,0,1,.14.34v.84h.83a.39.39,0,0,1,.31.13.4.4,0,0,1,.13.31.39.39,0,0,1-.13.31.41.41,0,0,1-.31.12Z" style="fill:#bdbdbd"/><path d="M83.49,40.84a.48.48,0,0,1-.33.12H79.64a1.75,1.75,0,0,0,.55,1.17,1.69,1.69,0,0,0,1.19.44,1.76,1.76,0,0,0,.78-.14,1.77,1.77,0,0,0,.53-.36A.57.57,0,0,1,83,42a.36.36,0,0,1,.28.12.39.39,0,0,1,.12.28.5.5,0,0,1-.2.38,2.17,2.17,0,0,1-.77.49,2.42,2.42,0,0,1-1,.2A2.88,2.88,0,0,1,80,43.11a2.35,2.35,0,0,1-1-1,2.82,2.82,0,0,1-.33-1.38,3,3,0,0,1,.34-1.47,2.54,2.54,0,0,1,.91-1A2.41,2.41,0,0,1,81.19,38a2.31,2.31,0,0,1,1.2.33,2.57,2.57,0,0,1,1.25,2.21A.48.48,0,0,1,83.49,40.84Zm-3.27-1.65a1.57,1.57,0,0,0-.54,1h2.95v-.08a1.21,1.21,0,0,0-.48-.87,1.52,1.52,0,0,0-1-.34A1.55,1.55,0,0,0,80.22,39.19Z" style="fill:#bdbdbd"/><path d="M88.33,38.24c.35.17.53.38.53.64a.49.49,0,0,1-.11.31.34.34,0,0,1-.28.13.41.41,0,0,1-.21,0,1.57,1.57,0,0,1-.2-.13,1.33,1.33,0,0,0-.19-.14,1.41,1.41,0,0,0-.34-.1,3.18,3.18,0,0,0-.4,0,1.75,1.75,0,0,0-.92.24,1.61,1.61,0,0,0-.62.67,2,2,0,0,0-.22.94,2.08,2.08,0,0,0,.21,1,1.69,1.69,0,0,0,.61.66,1.67,1.67,0,0,0,.89.24,1.82,1.82,0,0,0,.84-.16,1.08,1.08,0,0,0,.19-.13l.17-.12a.53.53,0,0,1,.19,0,.37.37,0,0,1,.31.13.44.44,0,0,1,.12.32.57.57,0,0,1-.27.42,2,2,0,0,1-.71.33,3.21,3.21,0,0,1-1,.13,2.57,2.57,0,0,1-1.34-.35,2.43,2.43,0,0,1-.9-1,3.06,3.06,0,0,1-.31-1.4,2.91,2.91,0,0,1,.33-1.39,2.42,2.42,0,0,1,.92-1A2.52,2.52,0,0,1,87,38,3.12,3.12,0,0,1,88.33,38.24Z" style="fill:#bdbdbd"/><path d="M91.3,39v3c0,.34.15.5.45.5l.19,0a.54.54,0,0,1,.19,0,.28.28,0,0,1,.22.11.45.45,0,0,1,.09.28.43.43,0,0,1-.24.36,1,1,0,0,1-.54.15,2.37,2.37,0,0,1-.61-.07.89.89,0,0,1-.49-.35,1.47,1.47,0,0,1-.21-.87V39h-.58a.41.41,0,0,1-.44-.44.43.43,0,0,1,.12-.31.45.45,0,0,1,.32-.12h.58v-.84a.46.46,0,0,1,.48-.48.45.45,0,0,1,.33.14.49.49,0,0,1,.14.34v.84h.83a.39.39,0,0,1,.31.13.4.4,0,0,1,.13.31.39.39,0,0,1-.13.31.41.41,0,0,1-.31.12Z" style="fill:#bdbdbd"/><path d="M97.92,38.25a.49.49,0,0,1,.14.34v2.66a2.3,2.3,0,0,1-3.81,1.62,2.21,2.21,0,0,1-.57-1.62V38.59a.48.48,0,0,1,.13-.34.48.48,0,0,1,.34-.14.46.46,0,0,1,.34.14.49.49,0,0,1,.14.34v2.66c0,.88.41,1.31,1.23,1.31a1.23,1.23,0,0,0,.93-.33,1.36,1.36,0,0,0,.32-1V38.59a.48.48,0,0,1,.13-.34.48.48,0,0,1,.34-.14A.46.46,0,0,1,97.92,38.25Z" style="fill:#bdbdbd"/><path d="M102.54,38.13a.39.39,0,0,1,.19.33.49.49,0,0,1-.13.37.41.41,0,0,1-.3.12,1,1,0,0,1-.27-.06,1.4,1.4,0,0,0-.33-.07,1,1,0,0,0-.61.22,1.68,1.68,0,0,0-.48.59,1.9,1.9,0,0,0-.18.83v2.41a.46.46,0,0,1-.14.34.42.42,0,0,1-.34.14.45.45,0,0,1-.34-.13.48.48,0,0,1-.13-.35V38.59a.48.48,0,0,1,.13-.34.48.48,0,0,1,.34-.14.46.46,0,0,1,.34.14.49.49,0,0,1,.14.34v.51a2,2,0,0,1,.66-.79,1.75,1.75,0,0,1,1-.32A.77.77,0,0,1,102.54,38.13Z" style="fill:#bdbdbd"/><path d="M107.84,40.84a.48.48,0,0,1-.33.12H104a1.75,1.75,0,0,0,.55,1.17,1.69,1.69,0,0,0,1.19.44,1.76,1.76,0,0,0,.78-.14,1.77,1.77,0,0,0,.53-.36.57.57,0,0,1,.29-.09.36.36,0,0,1,.28.12.39.39,0,0,1,.12.28.5.5,0,0,1-.2.38,2.17,2.17,0,0,1-.77.49,2.42,2.42,0,0,1-1,.2,2.88,2.88,0,0,1-1.43-.34,2.35,2.35,0,0,1-.95-1,2.82,2.82,0,0,1-.33-1.38,2.91,2.91,0,0,1,.35-1.47,2.45,2.45,0,0,1,.9-1,2.41,2.41,0,0,1,1.22-.34,2.31,2.31,0,0,1,1.2.33A2.57,2.57,0,0,1,108,40.53.48.48,0,0,1,107.84,40.84Zm-3.27-1.65a1.57,1.57,0,0,0-.54,1h3v-.08a1.21,1.21,0,0,0-.48-.87,1.52,1.52,0,0,0-1-.34A1.55,1.55,0,0,0,104.57,39.19Z" style="fill:#bdbdbd"/><path d="M60.59,29.79a.91.91,0,0,1,.27.66.85.85,0,0,1-.27.65,1,1,0,0,1-.69.25h-7a.93.93,0,0,1-.68-.28,1,1,0,0,1-.28-.68V18.31a1,1,0,0,1,1-1h7a1,1,0,0,1,.69.26.9.9,0,0,1,.27.68.85.85,0,0,1-.27.65,1,1,0,0,1-.69.25H54v4.08h5a.93.93,0,0,1,.69.26.87.87,0,0,1,.27.66.84.84,0,0,1-.27.66,1,1,0,0,1-.69.24H54v4.42H59.9A.9.9,0,0,1,60.59,29.79Z" style="fill:#757575"/><path d="M63.15,19.24a.84.84,0,0,1-.25-.67v-.32a.79.79,0,0,1,.27-.68,1.43,1.43,0,0,1,.83-.2,1.23,1.23,0,0,1,.81.21.81.81,0,0,1,.25.67v.32a.8.8,0,0,1-.26.68,1.35,1.35,0,0,1-.82.2A1.31,1.31,0,0,1,63.15,19.24Zm1.52,11.83a.9.9,0,0,1-.69.28.89.89,0,0,1-.67-.28,1,1,0,0,1-.27-.68V21.73a.93.93,0,0,1,.27-.68.89.89,0,0,1,.67-.28.9.9,0,0,1,.69.28.93.93,0,0,1,.27.68v8.66A1,1,0,0,1,64.67,31.07Z" style="fill:#757575"/><path d="M71.19,18.67a1.59,1.59,0,0,0-.31,1v1.4h2a.86.86,0,0,1,.9.88.81.81,0,0,1-.25.62.88.88,0,0,1-.65.24h-2v7.6a1,1,0,0,1-.27.68.9.9,0,0,1-.69.28.89.89,0,0,1-.67-.28,1,1,0,0,1-.27-.68v-7.6H67.74a.93.93,0,0,1-.64-.24.82.82,0,0,1-.26-.62.86.86,0,0,1,.26-.63.89.89,0,0,1,.64-.25H69v-1.4a2.89,2.89,0,0,1,.9-2.23,3.58,3.58,0,0,1,2.54-.83,2.65,2.65,0,0,1,1.2.25.78.78,0,0,1,.52.75.88.88,0,0,1-.23.63.7.7,0,0,1-.55.25l-.44-.08a2.89,2.89,0,0,0-.76-.12A1.15,1.15,0,0,0,71.19,18.67Zm7.8,0a1.59,1.59,0,0,0-.31,1v1.4h2a.86.86,0,0,1,.9.88.81.81,0,0,1-.25.62.88.88,0,0,1-.65.24h-2v7.6a1,1,0,0,1-.27.68.9.9,0,0,1-.69.28.89.89,0,0,1-.67-.28,1,1,0,0,1-.27-.68v-7.6H75.54a.93.93,0,0,1-.64-.24.82.82,0,0,1-.26-.62.86.86,0,0,1,.26-.63.89.89,0,0,1,.64-.25h1.24v-1.4a2.89,2.89,0,0,1,.9-2.23,3.58,3.58,0,0,1,2.54-.83,2.65,2.65,0,0,1,1.2.25.78.78,0,0,1,.52.75.88.88,0,0,1-.23.63.7.7,0,0,1-.55.25l-.44-.08a2.89,2.89,0,0,0-.76-.12A1.15,1.15,0,0,0,79,18.67Z" style="fill:#757575"/><path d="M92.18,26.32a1,1,0,0,1-.66.25h-7a3.55,3.55,0,0,0,1.11,2.34,3.44,3.44,0,0,0,2.37.88,3.82,3.82,0,0,0,1.56-.28,4,4,0,0,0,1.06-.72,1.15,1.15,0,0,1,.58-.18.8.8,0,0,1,.8.8,1,1,0,0,1-.4.76,4.64,4.64,0,0,1-1.54,1,5.16,5.16,0,0,1-2,.4,5.83,5.83,0,0,1-2.85-.68,4.82,4.82,0,0,1-1.9-1.9,5.75,5.75,0,0,1-.67-2.76,6.07,6.07,0,0,1,.69-2.95,5,5,0,0,1,1.82-2,4.69,4.69,0,0,1,4.83,0,5,5,0,0,1,1.8,1.82,5.08,5.08,0,0,1,.7,2.6A.84.84,0,0,1,92.18,26.32ZM85.64,23A3.16,3.16,0,0,0,84.56,25h5.9v-.16a2.4,2.4,0,0,0-.95-1.74,3,3,0,0,0-1.93-.68A3.11,3.11,0,0,0,85.64,23Z" style="fill:#757575"/><path d="M96.46,31.07a1,1,0,0,1-1.35,0,1,1,0,0,1-.27-.68V17.51a1,1,0,0,1,.28-.68.93.93,0,0,1,.68-.28.88.88,0,0,1,.67.28.94.94,0,0,1,.27.68V30.39A.93.93,0,0,1,96.46,31.07Z" style="fill:#757575"/></g><g id="logo"><g style="clip-path:url(#clip-path)"><g style="clip-path:url(#clip-path-2)"><rect x="3.08" y="8.08" width="43.84" height="43.84" transform="translate(-13.89 26.46) rotate(-45)" style="fill:url(#Unbenannter_Verlauf_2)"/></g></g></g></svg>